:SAMPLES-PER-SECOND 30
:FULLY-SPECIFIED
:DEGREES
196
root  42.7802 36.4779 -30.4755 -142.189 84.0919 177.066
RightUpLeg  -74.264 -11.7135 14.0874
RightLeg  37.1477 -2.81252 -2.55713
RightFoot  -2.19395 0.569055 -7.28295
RightToes  0.000482159 0.542163 -0.142577
Spine  75.7322 -5.4115 7.77044
Spine1  1.12136 1.54555 -5.13153
HEad  -38.1336 -6.82322 5.29238
LeftShoulder1  4.7856 -22.6356 -11.0185
LeftArm  -98.2568 -57.8681 43.3902
LeftForeArm  2.52749 -17.7073 -1.04124
LeftHand  -0.25398 0.0180481 5.50724
RightShoulder  2.59926 12.4133 8.9462
RightArm  -79.8255 54.9677 -30.6795
RightForeArm  -19.5636 17.5577 4.38512
RightHand  -0.815806 9.05968 -7.0122
LeftUpLeg  -72.562 11.1415 -13.0499
LeftLeg  38.4707 1.81698 1.92596
LeftFoot  -5.51437 -0.272119 5.99481
LeftToes  1.06247e-005 4.65855e-005 -8.18501e-006
197
root  42.8954 36.5289 -30.5427 -144.244 84.4446 175.179
RightUpLeg  -73.9107 -11.9727 13.9142
RightLeg  37.0701 -2.55715 -2.3438
RightFoot  -2.2569 0.560298 -7.22899
RightToes  0.000482159 0.542163 -0.142577
Spine  75.4957 -5.405 7.84552
Spine1  1.47555 1.66959 -5.23962
HEad  -37.8997 -6.92568 5.31102
LeftShoulder1  4.78039 -22.9801 -10.728
LeftArm  -96.9176 -58.34 41.9906
LeftForeArm  4.63579 -18.0867 -1.38626
LeftHand  -0.25398 0.0180481 5.50724
RightShoulder  2.61587 12.6378 8.80638
RightArm  -78.486 55.004 -30.3381
RightForeArm  -22.8756 18.1651 4.79441
RightHand  -1.52046 9.32379 -12.389
LeftUpLeg  -71.9871 11.1434 -13.1741
LeftLeg  38.282 2.02042 2.08697
LeftFoot  -5.66604 -0.254441 5.81792
LeftToes  1.06247e-005 4.65855e-005 -8.18501e-006
198
root  42.9717 36.5635 -30.6159 -145.561 84.8459 174.087
RightUpLeg  -73.5942 -12.1456 13.7809
RightLeg  37.0447 -2.29413 -2.129
RightFoot  -2.34873 0.546948 -7.14212
RightToes  0.000482159 0.542163 -0.142577
Spine  75.1043 -5.33867 7.90359
Spine1  1.87164 1.79621 -5.34226
HEad  -37.6357 -6.98112 5.33477
LeftShoulder1  4.83021 -23.357 -10.6476
LeftArm  -94.9745 -59.0932 40.9063
LeftForeArm  5.68309 -17.7303 -1.26044
LeftHand  -0.25398 0.0180481 5.50724
RightShoulder  2.60866 12.8271 8.54604
RightArm  -77.965 55.5286 -29.5261
RightForeArm  -25.0666 18.2583 4.9226
RightHand  -2.31685 10.3495 -17.4365
LeftUpLeg  -71.499 11.199 -13.2252
LeftLeg  38.2235 2.23238 2.262
LeftFoot  -5.86915 -0.239559 5.74896
LeftToes  1.06247e-005 4.65855e-005 -8.18501e-006
199
root  43.0129 36.5669 -30.693 -147.252 85.2123 172.648
RightUpLeg  -73.4232 -12.3211 13.6477
RightLeg  37.2302 -2.11274 -1.99468
RightFoot  -2.36787 0.546882 -7.1581
RightToes  0.000482159 0.542163 -0.142577
Spine  74.6155 -5.27294 7.99856
Spine1  2.30237 1.87255 -5.30716
HEad  -37.4345 -6.94871 5.31819
LeftShoulder1  4.89967 -23.6225 -10.732
LeftArm  -93.8419 -60.1015 40.2965
LeftForeArm  6.28817 -16.7773 -0.674621
LeftHand  -0.25398 0.0180481 5.50724
RightShoulder  2.60545 12.9539 8.38582
RightArm  -78.9273 56.3035 -28.7091
RightForeArm  -25.1779 17.886 4.72614
RightHand  -3.03068 11.6835 -20.8711
LeftUpLeg  -71.141 11.1595 -13.2472
LeftLeg  38.4131 2.53338 2.53095
LeftFoot  -6.18106 -0.221487 5.73736
LeftToes  1.06247e-005 4.65855e-005 -8.18501e-006
200
root  43.0175 36.5412 -30.7747 -149.179 85.5384 171.104
RightUpLeg  -73.2426 -12.4472 13.4083
RightLeg  37.5898 -2.03626 -1.95593
RightFoot  -2.37424 0.544286 -7.13059
RightToes  0.000482159 0.542163 -0.142577
Spine  74.2406 -5.20662 8.18844
Spine1  2.62111 1.99003 -5.183
HEad  -37.4158 -7.0603 5.29424
LeftShoulder1  4.99058 -23.8338 -10.9418
LeftArm  -93.5554 -61.2784 39.9212
LeftForeArm  7.13861 -15.8565 -0.0913878
LeftHand  -0.25398 0.0180481 5.50724
RightShoulder  2.63791 13.009 8.5463
RightArm  -79.9745 56.9623 -28.2489
RightForeArm  -24.2665 17.4734 4.46375
RightHand  -3.64853 12.8929 -23.3276
LeftUpLeg  -70.8103 11.0161 -13.154
LeftLeg  38.8249 2.93252 2.90742
LeftFoot  -6.49074 -0.200885 5.66191
LeftToes  1.06247e-005 4.65855e-005 -8.18501e-006
201
root  42.9745 36.506 -30.863 -149.977 85.8606 170.839
RightUpLeg  -72.9228 -12.3363 12.9581
RightLeg  37.9403 -2.12786 -2.05561
RightFoot  -2.42889 0.521434 -6.88749
RightToes  0.000482159 0.542163 -0.142577
Spine  74.0994 -5.14733 8.43397
Spine1  2.70535 2.18178 -5.15721
HEad  -37.4676 -7.28588 5.34948
LeftShoulder1  5.06812 -23.8987 -11.2053
LeftArm  -93.4485 -62.5579 39.7272
LeftForeArm  7.94309 -15.2848 0.139028
LeftHand  -0.25398 0.0180481 5.50724
RightShoulder  2.7093 13.0303 9.00567
RightArm  -79.9863 57.4645 -28.1555
RightForeArm  -23.5593 17.158 4.34707
RightHand  -4.17819 13.7122 -25.4606
LeftUpLeg  -70.4651 10.8523 -12.8685
LeftLeg  39.3205 3.3922 3.35563
LeftFoot  -6.69163 -0.183957 5.51985
LeftToes  1.06247e-005 4.65855e-005 -8.18501e-006
202
root  42.8731 36.471 -30.9577 -150.102 86.1692 171.292
RightUpLeg  -72.5828 -12.0283 12.3293
RightLeg  38.2223 -2.39172 -2.29753
RightFoot  -2.36634 0.504439 -6.61906
RightToes  0.000482159 0.542163 -0.142577
Spine  74.0644 -5.11691 8.61381
Spine1  2.68455 2.32818 -5.18631
HEad  -37.3609 -7.30907 5.48877
LeftShoulder1  5.13842 -23.6905 -11.6499
LeftArm  -93.8126 -63.8597 40.3755
LeftForeArm  7.91576 -14.7173 0.21389
LeftHand  -0.25398 0.0180481 5.50724
RightShoulder  2.7417 13.0253 9.23011
RightArm  -79.7843 57.9332 -28.1685
RightForeArm  -23.1705 16.6445 4.21767
RightHand  -4.37098 13.8205 -26.4257
LeftUpLeg  -70.1492 10.6308 -12.4994
LeftLeg  39.777 3.89998 3.85599
LeftFoot  -6.77599 -0.175749 5.43752
LeftToes  1.06247e-005 4.65855e-005 -8.18501e-006
203
root  42.7133 36.4225 -31.0553 -151.271 86.4333 170.711
RightUpLeg  -72.3513 -11.7799 11.6988
RightLeg  38.4978 -2.6538 -2.54146
RightFoot  -2.06177 0.520355 -6.57039
RightToes  0.000482159 0.542163 -0.142577
Spine  73.9745 -5.11931 8.66379
Spine1  2.77029 2.35486 -5.12568
HEad  -36.9758 -7.09058 5.58868
LeftShoulder1  5.24101 -23.3546 -12.3347
LeftArm  -95.1583 -65.0106 42.2466
LeftForeArm  7.08554 -13.7166 0.483941
LeftHand  -0.25398 0.0180481 5.50724
RightShoulder  2.6714 12.9068 8.88529
RightArm  -80.586 58.4863 -28.3559
RightForeArm  -22.5021 15.4972 3.76827
RightHand  -4.12395 13.3171 -25.6369
LeftUpLeg  -69.9022 10.3049 -12.2236
LeftLeg  40.2154 4.41528 4.37535
LeftFoot  -6.75784 -0.180799 5.5735
LeftToes  1.06247e-005 4.65855e-005 -8.18501e-006
204
root  42.4982 36.3465 -31.1553 -152.589 86.6756 170.09
RightUpLeg  -72.1451 -11.6641 11.234
RightLeg  38.7654 -2.80444 -2.69331
RightFoot  -1.69317 0.55442 -6.69181
RightToes  0.000482159 0.542163 -0.142577
Spine  73.8636 -5.14454 8.66201
Spine1  2.91504 2.35688 -5.08431
HEad  -36.3393 -6.9757 5.52976
LeftShoulder1  5.3624 -23.2235 -12.9399
LeftArm  -96.5607 -65.8282 44.5049
LeftForeArm  6.24892 -12.2701 0.858197
LeftHand  -0.25398 0.0180481 5.50724
RightShoulder  2.57444 12.6374 8.52049
RightArm  -81.8809 59.2627 -29.4055
RightForeArm  -21.2698 13.4974 3.02798
RightHand  -3.87602 12.9274 -24.6666
LeftUpLeg  -69.7369 10.0669 -12.1015
LeftLeg  40.7545 4.7968 4.80285
LeftFoot  -6.67178 -0.201127 5.94791
LeftToes  1.06247e-005 4.65855e-005 -8.18501e-006
205
root  42.2214 36.2582 -31.2645 -151.377 86.9525 172.184
RightUpLeg  -71.7973 -11.485 10.8838
RightLeg  38.9218 -2.99899 -2.87511
RightFoot  -1.37174 0.587469 -6.8275
RightToes  0.000482159 0.542163 -0.142577
Spine  73.8413 -5.15274 8.72013
Spine1  2.91013 2.45131 -5.18111
HEad  -35.5782 -7.17478 5.28287
LeftShoulder1  5.49283 -23.492 -13.2468
LeftArm  -96.9647 -66.3082 46.4485
LeftForeArm  5.9687 -10.5411 0.939242
LeftHand  -0.25398 0.0180481 5.50724
RightShoulder  2.54173 12.3443 8.62047
RightArm  -82.5388 60.2437 -31.8456
RightForeArm  -19.6081 10.7679 2.48374
RightHand  -3.95861 12.8074 -25.3197
LeftUpLeg  -69.6123 10.2053 -12.1464
LeftLeg  41.3498 4.88941 4.98442
LeftFoot  -6.59327 -0.224951 6.37639
LeftToes  1.06247e-005 4.65855e-005 -8.18501e-006
206
root  41.8729 36.199 -31.3894 -148.237 87.2684 176.374
RightUpLeg  -71.178 -11.1206 10.3699
RightLeg  38.7948 -3.31875 -3.13693
RightFoot  -0.794823 0.630568 -6.87589
RightToes  0.000482159 0.542163 -0.142577
Spine  73.8843 -5.08516 8.81956
Spine1  2.75039 2.61035 -5.18282
HEad  -34.7811 -7.52281 4.85336
LeftShoulder1  5.69538 -24.0553 -13.5856
LeftArm  -97.2132 -66.6335 48.9452
LeftForeArm  6.40044 -8.40604 0.582928
LeftHand  -0.25398 0.0180481 5.50724
RightShoulder  2.50104 12.1746 8.52461
RightArm  -82.8061 61.1783 -35.0846
RightForeArm  -17.7978 7.64536 2.35376
RightHand  -3.95712 11.8859 -26.5907
LeftUpLeg  -69.3738 10.7701 -12.4753
LeftLeg  41.6737 4.65672 4.81909
LeftFoot  -6.47767 -0.246266 6.71165
LeftToes  1.06247e-005 4.65855e-005 -8.18501e-006
207
root  41.4566 36.2015 -31.5261 -147.423 87.5889 178.412
RightUpLeg  -70.1669 -10.712 9.50976
RightLeg  38.1777 -3.53211 -3.25179
RightFoot  0.275189 0.683213 -6.68801
RightToes  0.000482159 0.542163 -0.142577
Spine  73.8387 -4.93648 8.86625
Spine1  2.72451 2.73314 -4.83445
HEad  -33.848 -7.84606 4.25502
LeftShoulder1  5.96449 -24.6665 -14.1294
LeftArm  -98.3354 -67.0259 52.6713
LeftForeArm  7.68691 -5.6667 0.0261394
LeftHand  -0.25398 0.0180481 5.50724
RightShoulder  2.33327 12.0659 7.44201
RightArm  -83.5329 61.9852 -37.7765
RightForeArm  -16.0014 4.4003 2.10963
RightHand  -3.45729 9.81353 -26.3671
LeftUpLeg  -68.8089 11.6308 -13.2395
LeftLeg  41.4001 4.14932 4.302
LeftFoot  -6.08514 -0.288455 7.07309
LeftToes  1.06247e-005 4.65855e-005 -8.18501e-006
208
root  40.9922 36.263 -31.6682 -151.655 87.9095 175.631
RightUpLeg  -68.7356 -10.4981 8.49667
RightLeg  37.0132 -3.51556 -3.11198
RightFoot  1.53492 0.715813 -6.2408
RightToes  0.000482159 0.542163 -0.142577
Spine  73.555 -4.79943 8.83838
Spine1  3.11251 2.75361 -4.34719
HEad  -32.6274 -8.10554 3.5617
LeftShoulder1  6.13192 -25.1393 -14.3779
LeftArm  -99.2048 -67.6292 55.8425
LeftForeArm  10.2047 -2.76809 -0.57874
LeftHand  -0.25398 0.0180481 5.50724
RightShoulder  2.10555 11.8844 5.97934
RightArm  -84.8588 62.9262 -38.8466
RightForeArm  -13.8932 1.41718 1.45872
RightHand  -3.01907 8.35503 -25.5347
LeftUpLeg  -67.8146 12.7392 -14.4229
LeftLeg  40.5251 3.43785 3.53298
LeftFoot  -5.27763 -0.37628 7.68781
LeftToes  1.06247e-005 4.65855e-005 -8.18501e-006
